G04*
G04 #@! TF.GenerationSoftware,Altium Limited,Altium Designer,22.9.1 (49)*
G04*
G04 Layer_Physical_Order=2*
G04 Layer_Color=16711680*
%FSLAX23Y23*%
%MOIN*%
G70*
G04*
G04 #@! TF.SameCoordinates,1D9096F5-09AE-4004-8E61-CDF66F45815B*
G04*
G04*
G04 #@! TF.FilePolarity,Positive*
G04*
G01*
G75*
%ADD31C,0.062*%
%ADD32R,0.062X0.062*%
%ADD33R,0.062X0.062*%
%ADD34C,0.094*%
%ADD35R,0.094X0.094*%
%ADD36C,0.059*%
%ADD37R,0.060X0.060*%
%ADD38C,0.060*%
%ADD39C,0.098*%
%ADD40C,0.048*%
%ADD41R,0.048X0.048*%
%ADD42C,0.049*%
%ADD43R,0.049X0.049*%
%ADD44R,0.059X0.059*%
%ADD45C,0.077*%
D31*
X1481Y1340D02*
D03*
X525Y190D02*
D03*
D32*
X1885Y1340D02*
D03*
D33*
X525Y594D02*
D03*
D34*
X2645Y1062D02*
D03*
X260Y1025D02*
D03*
X2645Y550D02*
D03*
D35*
Y1262D02*
D03*
X260Y1225D02*
D03*
X2645Y750D02*
D03*
D36*
X1485Y1025D02*
D03*
Y1125D02*
D03*
X975Y790D02*
D03*
Y690D02*
D03*
Y590D02*
D03*
Y490D02*
D03*
X1275Y790D02*
D03*
Y690D02*
D03*
Y590D02*
D03*
D37*
X1540Y810D02*
D03*
X155Y745D02*
D03*
X1395Y410D02*
D03*
D38*
X1540D02*
D03*
X155Y345D02*
D03*
X1395Y810D02*
D03*
D39*
X325Y580D02*
D03*
Y383D02*
D03*
D40*
X1084Y990D02*
D03*
X781Y525D02*
D03*
D41*
X1006Y990D02*
D03*
X859Y525D02*
D03*
D42*
X950Y261D02*
D03*
X850Y361D02*
D03*
D43*
X750Y261D02*
D03*
D44*
X1275Y490D02*
D03*
D45*
X1784Y1126D02*
D03*
X1705Y890D02*
D03*
X1784Y654D02*
D03*
X2264D02*
D03*
Y1126D02*
D03*
M02*
