G04*
G04 #@! TF.GenerationSoftware,Altium Limited,Altium Designer,22.9.1 (49)*
G04*
G04 Layer_Color=8388736*
%FSLAX23Y23*%
%MOIN*%
G70*
G04*
G04 #@! TF.SameCoordinates,1D9096F5-09AE-4004-8E61-CDF66F45815B*
G04*
G04*
G04 #@! TF.FilePolarity,Negative*
G04*
G01*
G75*
%ADD11R,0.165X0.093*%
%ADD12C,0.070*%
%ADD13R,0.070X0.070*%
%ADD14R,0.070X0.070*%
%ADD15C,0.102*%
%ADD16R,0.102X0.102*%
%ADD17C,0.067*%
%ADD18R,0.068X0.068*%
%ADD19C,0.068*%
%ADD20C,0.106*%
%ADD21C,0.056*%
%ADD22R,0.056X0.056*%
%ADD23C,0.057*%
%ADD24R,0.057X0.057*%
%ADD25R,0.067X0.067*%
%ADD26C,0.085*%
D11*
X1157Y215D02*
D03*
X1395D02*
D03*
D12*
X1481Y1340D02*
D03*
X525Y190D02*
D03*
D13*
X1885Y1340D02*
D03*
D14*
X525Y594D02*
D03*
D15*
X2645Y1062D02*
D03*
X260Y1025D02*
D03*
X2645Y550D02*
D03*
D16*
Y1262D02*
D03*
X260Y1225D02*
D03*
X2645Y750D02*
D03*
D17*
X1485Y1025D02*
D03*
Y1125D02*
D03*
X975Y790D02*
D03*
Y690D02*
D03*
Y590D02*
D03*
Y490D02*
D03*
X1275Y790D02*
D03*
Y690D02*
D03*
Y590D02*
D03*
D18*
X1540Y810D02*
D03*
X155Y745D02*
D03*
X1395Y410D02*
D03*
D19*
X1540D02*
D03*
X155Y345D02*
D03*
X1395Y810D02*
D03*
D20*
X325Y580D02*
D03*
Y383D02*
D03*
D21*
X1084Y990D02*
D03*
X781Y525D02*
D03*
D22*
X1006Y990D02*
D03*
X859Y525D02*
D03*
D23*
X950Y261D02*
D03*
X850Y361D02*
D03*
D24*
X750Y261D02*
D03*
D25*
X1275Y490D02*
D03*
D26*
X1784Y1126D02*
D03*
X1705Y890D02*
D03*
X1784Y654D02*
D03*
X2264D02*
D03*
Y1126D02*
D03*
M02*
