M48
;Layer_Color=9474304
;FILE_FORMAT=2:3
INCH,LZ
;TYPE=PLATED
T1F00S00C0.028
T2F00S00C0.030
T3F00S00C0.035
T4F00S00C0.038
T5F00S00C0.041
T6F00S00C0.051
T7F00S00C0.059
T8F00S00C0.063
%
T01
X00781Y00525
X00859
X01006Y0099
X01084
T02
X0075Y00261
X0095
X0085Y00361
T03
X00975Y0049
Y0059
X01275
Y0049
Y0069
Y0079
X00975
Y0069
X01485Y01025
Y01125
T04
X01395Y0041
X0154
X00155Y00345
Y00745
X01395Y0081
X0154
T05
X00525Y0019
Y00594
X01481Y0134
X01885
T06
X01705Y0089
X01784Y01126
Y00654
X02264
Y01126
T07
X00325Y00383
Y0058
T08
X02645Y0055
X0026Y01025
Y01225
X02645Y01262
Y01062
Y0075
M30
