G04*
G04 #@! TF.GenerationSoftware,Altium Limited,Altium Designer,22.9.1 (49)*
G04*
G04 Layer_Color=32768*
%FSLAX23Y23*%
%MOIN*%
G70*
G04*
G04 #@! TF.SameCoordinates,1D9096F5-09AE-4004-8E61-CDF66F45815B*
G04*
G04*
G04 #@! TF.FilePolarity,Positive*
G04*
G01*
G75*
%ADD48C,0.004*%
%ADD49C,0.002*%
D48*
X850Y240D02*
Y280D01*
X830Y260D02*
X870D01*
X1125Y620D02*
Y660D01*
X1105Y640D02*
X1145D01*
D49*
X1153Y990D02*
G03*
X1153Y990I-108J0D01*
G01*
X928Y525D02*
G03*
X928Y525I-108J0D01*
G01*
X2608Y1162D02*
X2647D01*
X2627Y1143D02*
Y1182D01*
X2802Y915D02*
Y1410D01*
X2452Y915D02*
X2802D01*
X2452D02*
Y1410D01*
X2802D01*
X67Y1372D02*
X417D01*
X67Y878D02*
Y1372D01*
Y878D02*
X417D01*
Y1372D01*
X242Y1105D02*
Y1145D01*
X223Y1125D02*
X262D01*
X984Y118D02*
Y402D01*
X716Y118D02*
Y402D01*
Y118D02*
X984D01*
X716Y402D02*
X984D01*
X934Y851D02*
X1316D01*
X934Y429D02*
X1316D01*
X934D02*
Y851D01*
X1316Y429D02*
Y851D01*
X1632Y573D02*
Y1207D01*
X2408D01*
Y573D02*
Y1207D01*
X1632Y573D02*
X2408D01*
X2452Y897D02*
X2802D01*
X2452Y403D02*
Y897D01*
Y403D02*
X2802D01*
Y897D01*
X2627Y630D02*
Y670D01*
X2608Y650D02*
X2647D01*
M02*
