G04*
G04 #@! TF.GenerationSoftware,Altium Limited,Altium Designer,22.9.1 (49)*
G04*
G04 Layer_Physical_Order=1*
G04 Layer_Color=255*
%FSLAX23Y23*%
%MOIN*%
G70*
G04*
G04 #@! TF.SameCoordinates,1D9096F5-09AE-4004-8E61-CDF66F45815B*
G04*
G04*
G04 #@! TF.FilePolarity,Positive*
G04*
G01*
G75*
%ADD10R,0.157X0.085*%
%ADD27C,0.030*%
%ADD28C,0.020*%
%ADD29C,0.010*%
%ADD30C,0.015*%
%ADD31C,0.062*%
%ADD32R,0.062X0.062*%
%ADD33R,0.062X0.062*%
%ADD34C,0.094*%
%ADD35R,0.094X0.094*%
%ADD36C,0.059*%
%ADD37R,0.060X0.060*%
%ADD38C,0.060*%
%ADD39C,0.098*%
%ADD40C,0.048*%
%ADD41R,0.048X0.048*%
%ADD42C,0.049*%
%ADD43R,0.049X0.049*%
%ADD44R,0.059X0.059*%
%ADD45C,0.077*%
G36*
X2825Y50D02*
Y40D01*
X50D01*
Y1520D01*
X2825D01*
Y50D01*
D02*
G37*
%LPC*%
G36*
X1926Y1381D02*
X1890D01*
Y1345D01*
X1926D01*
Y1381D01*
D02*
G37*
G36*
X1880D02*
X1844D01*
Y1345D01*
X1880D01*
Y1381D01*
D02*
G37*
G36*
X1926Y1335D02*
X1890D01*
Y1299D01*
X1926D01*
Y1335D01*
D02*
G37*
G36*
X1880D02*
X1844D01*
Y1299D01*
X1880D01*
Y1335D01*
D02*
G37*
G36*
X1486Y1381D02*
X1476D01*
X1465Y1378D01*
X1456Y1373D01*
X1448Y1365D01*
X1443Y1356D01*
X1440Y1345D01*
Y1335D01*
X1442Y1326D01*
X1432Y1317D01*
X1429Y1311D01*
X1427Y1304D01*
Y1180D01*
X1429Y1173D01*
X1432Y1167D01*
X1452Y1147D01*
X1448Y1140D01*
X1445Y1130D01*
Y1120D01*
X1448Y1110D01*
X1453Y1101D01*
X1461Y1093D01*
X1470Y1088D01*
X1480Y1085D01*
X1490D01*
X1500Y1088D01*
X1509Y1093D01*
X1514Y1099D01*
X1536Y1077D01*
X1536Y1077D01*
X1541Y1074D01*
X1548Y1072D01*
X1548Y1072D01*
X1748D01*
X1754Y1074D01*
X1760Y1077D01*
X1764Y1082D01*
X1765Y1081D01*
X1777Y1078D01*
X1790D01*
X1802Y1081D01*
X1813Y1088D01*
X1822Y1097D01*
X1829Y1108D01*
X1832Y1120D01*
Y1133D01*
X1829Y1145D01*
X1822Y1156D01*
X1813Y1165D01*
X1802Y1171D01*
X1790Y1175D01*
X1777D01*
X1765Y1171D01*
X1754Y1165D01*
X1745Y1156D01*
X1739Y1145D01*
X1735Y1133D01*
Y1120D01*
X1738Y1112D01*
X1735Y1108D01*
X1556D01*
X1520Y1144D01*
X1517Y1149D01*
X1509Y1157D01*
X1500Y1162D01*
X1490Y1165D01*
X1486D01*
X1463Y1187D01*
Y1297D01*
X1467Y1301D01*
X1476Y1299D01*
X1486D01*
X1497Y1302D01*
X1506Y1307D01*
X1514Y1315D01*
X1519Y1324D01*
X1522Y1335D01*
Y1345D01*
X1519Y1356D01*
X1514Y1365D01*
X1506Y1373D01*
X1497Y1378D01*
X1486Y1381D01*
D02*
G37*
G36*
X317Y1282D02*
X265D01*
Y1230D01*
X317D01*
Y1282D01*
D02*
G37*
G36*
X255D02*
X203D01*
Y1230D01*
X255D01*
Y1282D01*
D02*
G37*
G36*
X2702Y1320D02*
X2588D01*
Y1205D01*
X2702D01*
Y1320D01*
D02*
G37*
G36*
X317Y1220D02*
X265D01*
Y1168D01*
X317D01*
Y1220D01*
D02*
G37*
G36*
X255D02*
X203D01*
Y1168D01*
X255D01*
Y1220D01*
D02*
G37*
G36*
X2270Y1175D02*
X2258D01*
X2245Y1171D01*
X2234Y1165D01*
X2225Y1156D01*
X2219Y1145D01*
X2216Y1133D01*
Y1120D01*
X2219Y1108D01*
X2225Y1097D01*
X2234Y1088D01*
X2245Y1081D01*
X2258Y1078D01*
X2270D01*
X2275Y1079D01*
X2310Y1044D01*
X2318Y1039D01*
X2328Y1037D01*
X2594D01*
X2599Y1027D01*
X2610Y1017D01*
X2623Y1009D01*
X2637Y1005D01*
X2653D01*
X2667Y1009D01*
X2680Y1017D01*
X2691Y1027D01*
X2698Y1040D01*
X2702Y1055D01*
Y1070D01*
X2698Y1085D01*
X2691Y1098D01*
X2680Y1108D01*
X2667Y1116D01*
X2653Y1120D01*
X2637D01*
X2623Y1116D01*
X2610Y1108D01*
X2599Y1098D01*
X2594Y1088D01*
X2338D01*
X2311Y1115D01*
X2312Y1120D01*
Y1133D01*
X2309Y1145D01*
X2303Y1156D01*
X2294Y1165D01*
X2283Y1171D01*
X2270Y1175D01*
D02*
G37*
G36*
X1089Y1024D02*
Y995D01*
X1118D01*
X1116Y1003D01*
X1111Y1011D01*
X1105Y1017D01*
X1097Y1021D01*
X1089Y1024D01*
D02*
G37*
G36*
X1079D02*
X1071Y1021D01*
X1064Y1017D01*
X1057Y1011D01*
X1053Y1003D01*
X1051Y995D01*
X1079D01*
Y1024D01*
D02*
G37*
G36*
X1118Y985D02*
X1089D01*
Y956D01*
X1097Y959D01*
X1105Y963D01*
X1111Y969D01*
X1116Y977D01*
X1118Y985D01*
D02*
G37*
G36*
X1079D02*
X1051D01*
X1053Y977D01*
X1057Y969D01*
X1064Y963D01*
X1071Y959D01*
X1079Y956D01*
Y985D01*
D02*
G37*
G36*
X1400Y850D02*
X1390D01*
X1380Y847D01*
X1370Y842D01*
X1363Y835D01*
X1361Y830D01*
X1305D01*
X1298Y829D01*
X1293Y825D01*
X1290Y827D01*
X1280Y830D01*
X1270D01*
X1260Y827D01*
X1251Y822D01*
X1243Y814D01*
X1241Y810D01*
X1215D01*
X1207Y809D01*
X1201Y804D01*
X1111Y714D01*
X1106Y708D01*
X1105Y700D01*
Y445D01*
X975Y315D01*
X970Y317D01*
Y444D01*
X977Y450D01*
X980D01*
X990Y453D01*
X999Y458D01*
X1007Y466D01*
X1012Y475D01*
X1015Y485D01*
Y495D01*
X1012Y505D01*
X1007Y514D01*
X999Y522D01*
X990Y527D01*
X980Y530D01*
X970D01*
X960Y527D01*
X951Y522D01*
X943Y514D01*
X938Y505D01*
X935Y495D01*
Y485D01*
X938Y475D01*
X940Y471D01*
X936Y466D01*
X931Y460D01*
X930Y452D01*
Y290D01*
X929Y289D01*
X922Y283D01*
X922Y282D01*
X866D01*
X566Y582D01*
Y635D01*
X484D01*
Y614D01*
X373D01*
X371Y618D01*
X363Y626D01*
X353Y632D01*
X342Y637D01*
X331Y639D01*
X319D01*
X308Y637D01*
X297Y632D01*
X287Y626D01*
X279Y618D01*
X273Y608D01*
X268Y597D01*
X266Y586D01*
Y574D01*
X268Y563D01*
X273Y552D01*
X279Y542D01*
X287Y534D01*
X297Y528D01*
X308Y523D01*
X319Y521D01*
X331D01*
X342Y523D01*
X353Y528D01*
X363Y534D01*
X371Y542D01*
X377Y552D01*
X382Y563D01*
X384Y574D01*
X484D01*
Y553D01*
X537D01*
X843Y247D01*
X843Y247D01*
X850Y243D01*
X858Y241D01*
X922D01*
X922Y240D01*
X929Y234D01*
X937Y229D01*
X945Y227D01*
X955D01*
X963Y229D01*
X971Y234D01*
X978Y240D01*
X982Y248D01*
X985Y257D01*
Y266D01*
X984Y267D01*
X1139Y422D01*
X1144Y429D01*
X1145Y436D01*
Y692D01*
X1223Y770D01*
X1241D01*
X1243Y766D01*
X1251Y758D01*
X1260Y753D01*
X1270Y750D01*
X1280D01*
X1290Y753D01*
X1299Y758D01*
X1307Y766D01*
X1312Y775D01*
X1315Y785D01*
Y790D01*
X1361D01*
X1363Y785D01*
X1370Y778D01*
X1380Y773D01*
X1390Y770D01*
X1400D01*
X1410Y773D01*
X1420Y778D01*
X1427Y785D01*
X1432Y795D01*
X1435Y805D01*
Y815D01*
X1432Y825D01*
X1427Y835D01*
X1420Y842D01*
X1410Y847D01*
X1400Y850D01*
D02*
G37*
G36*
X1490Y1065D02*
X1480D01*
X1470Y1062D01*
X1461Y1057D01*
X1453Y1049D01*
X1448Y1040D01*
X1445Y1030D01*
Y1020D01*
X1448Y1010D01*
X1453Y1001D01*
X1461Y993D01*
X1467Y990D01*
Y865D01*
X1469Y858D01*
X1472Y852D01*
X1500Y825D01*
Y770D01*
X1580D01*
Y850D01*
X1525D01*
X1503Y872D01*
Y990D01*
X1509Y993D01*
X1517Y1001D01*
X1522Y1010D01*
X1525Y1020D01*
Y1030D01*
X1522Y1040D01*
X1517Y1049D01*
X1509Y1057D01*
X1500Y1062D01*
X1490Y1065D01*
D02*
G37*
G36*
X1039Y1024D02*
X972D01*
Y981D01*
X962Y972D01*
X959Y966D01*
X957Y959D01*
Y825D01*
X951Y822D01*
X943Y814D01*
X938Y805D01*
X935Y795D01*
Y785D01*
X938Y775D01*
X943Y766D01*
X951Y758D01*
X960Y753D01*
X970Y750D01*
X980D01*
X990Y753D01*
X999Y758D01*
X1007Y766D01*
X1012Y775D01*
X1015Y785D01*
Y795D01*
X1012Y805D01*
X1007Y814D01*
X999Y822D01*
X993Y825D01*
Y952D01*
X997Y956D01*
X1039D01*
Y1024D01*
D02*
G37*
G36*
X268Y1082D02*
X252D01*
X238Y1078D01*
X225Y1071D01*
X214Y1060D01*
X207Y1047D01*
X203Y1033D01*
Y1017D01*
X207Y1003D01*
X214Y990D01*
X225Y979D01*
X238Y972D01*
X240Y971D01*
Y858D01*
X166Y785D01*
X115D01*
Y705D01*
X195D01*
Y756D01*
X274Y836D01*
X279Y842D01*
X280Y850D01*
Y971D01*
X282Y972D01*
X295Y979D01*
X306Y990D01*
X313Y1003D01*
X317Y1017D01*
Y1033D01*
X313Y1047D01*
X306Y1060D01*
X295Y1071D01*
X282Y1078D01*
X268Y1082D01*
D02*
G37*
G36*
X1711Y938D02*
X1699D01*
X1686Y935D01*
X1675Y929D01*
X1666Y920D01*
X1660Y909D01*
X1657Y896D01*
Y884D01*
X1660Y871D01*
X1666Y860D01*
X1675Y851D01*
X1686Y845D01*
X1699Y842D01*
X1711D01*
X1716Y843D01*
X1747Y812D01*
X1755Y806D01*
X1765Y805D01*
X2554D01*
X2588Y771D01*
Y693D01*
X2702D01*
Y807D01*
X2624D01*
X2583Y848D01*
X2575Y854D01*
X2565Y855D01*
X1776D01*
X1752Y879D01*
X1753Y884D01*
Y896D01*
X1750Y909D01*
X1744Y920D01*
X1735Y929D01*
X1724Y935D01*
X1711Y938D01*
D02*
G37*
G36*
X1790Y702D02*
X1789D01*
Y659D01*
X1832D01*
Y660D01*
X1829Y672D01*
X1822Y683D01*
X1813Y692D01*
X1802Y699D01*
X1790Y702D01*
D02*
G37*
G36*
X1779D02*
X1777D01*
X1765Y699D01*
X1754Y692D01*
X1745Y683D01*
X1739Y672D01*
X1735Y660D01*
Y659D01*
X1779D01*
Y702D01*
D02*
G37*
G36*
X980Y730D02*
X970D01*
X960Y727D01*
X951Y722D01*
X943Y714D01*
X938Y705D01*
X935Y695D01*
Y685D01*
X938Y675D01*
X943Y666D01*
X951Y658D01*
X957Y655D01*
Y625D01*
X951Y622D01*
X943Y614D01*
X940Y608D01*
X924D01*
X924Y608D01*
X918Y606D01*
X912Y603D01*
X868Y559D01*
X826D01*
Y491D01*
X832D01*
Y391D01*
X829Y389D01*
X822Y383D01*
X818Y375D01*
X815Y366D01*
Y357D01*
X818Y348D01*
X822Y340D01*
X829Y334D01*
X837Y329D01*
X845Y327D01*
X855D01*
X863Y329D01*
X871Y334D01*
X878Y340D01*
X882Y348D01*
X885Y357D01*
Y366D01*
X882Y375D01*
X878Y383D01*
X871Y389D01*
X868Y391D01*
Y491D01*
X893D01*
Y534D01*
X932Y572D01*
X940D01*
X943Y566D01*
X951Y558D01*
X960Y553D01*
X970Y550D01*
X980D01*
X990Y553D01*
X999Y558D01*
X1007Y566D01*
X1012Y575D01*
X1015Y585D01*
Y595D01*
X1012Y605D01*
X1007Y614D01*
X999Y622D01*
X993Y625D01*
Y655D01*
X999Y658D01*
X1007Y666D01*
X1012Y675D01*
X1015Y685D01*
Y695D01*
X1012Y705D01*
X1007Y714D01*
X999Y722D01*
X990Y727D01*
X980Y730D01*
D02*
G37*
G36*
X1832Y649D02*
X1789D01*
Y605D01*
X1790D01*
X1802Y609D01*
X1813Y615D01*
X1822Y624D01*
X1829Y635D01*
X1832Y647D01*
Y649D01*
D02*
G37*
G36*
X1779D02*
X1735D01*
Y647D01*
X1739Y635D01*
X1745Y624D01*
X1754Y615D01*
X1765Y609D01*
X1777Y605D01*
X1779D01*
Y649D01*
D02*
G37*
G36*
X786Y559D02*
Y530D01*
X814D01*
X812Y538D01*
X808Y546D01*
X801Y552D01*
X794Y556D01*
X786Y559D01*
D02*
G37*
G36*
X776Y559D02*
X768Y556D01*
X760Y552D01*
X754Y546D01*
X749Y538D01*
X747Y530D01*
X776D01*
Y559D01*
D02*
G37*
G36*
X1315Y530D02*
X1280D01*
Y495D01*
X1315D01*
Y530D01*
D02*
G37*
G36*
X1270D02*
X1235D01*
Y495D01*
X1270D01*
Y530D01*
D02*
G37*
G36*
X2270Y702D02*
X2258D01*
X2245Y699D01*
X2234Y692D01*
X2225Y683D01*
X2219Y672D01*
X2216Y660D01*
Y647D01*
X2219Y635D01*
X2225Y624D01*
X2234Y615D01*
X2245Y609D01*
X2258Y605D01*
X2270D01*
X2275Y607D01*
X2350Y532D01*
X2358Y526D01*
X2368Y525D01*
X2594D01*
X2599Y515D01*
X2610Y504D01*
X2623Y497D01*
X2637Y493D01*
X2653D01*
X2667Y497D01*
X2680Y504D01*
X2691Y515D01*
X2698Y528D01*
X2702Y542D01*
Y558D01*
X2698Y572D01*
X2691Y585D01*
X2680Y596D01*
X2667Y603D01*
X2653Y607D01*
X2637D01*
X2623Y603D01*
X2610Y596D01*
X2599Y585D01*
X2594Y575D01*
X2378D01*
X2311Y643D01*
X2312Y647D01*
Y660D01*
X2309Y672D01*
X2303Y683D01*
X2294Y692D01*
X2283Y699D01*
X2270Y702D01*
D02*
G37*
G36*
X814Y520D02*
X786D01*
Y491D01*
X794Y494D01*
X801Y498D01*
X808Y504D01*
X812Y512D01*
X814Y520D01*
D02*
G37*
G36*
X776D02*
X747D01*
X749Y512D01*
X754Y504D01*
X760Y498D01*
X768Y494D01*
X776Y491D01*
Y520D01*
D02*
G37*
G36*
X1315Y485D02*
X1280D01*
Y450D01*
X1315D01*
Y485D01*
D02*
G37*
G36*
X1270D02*
X1235D01*
Y450D01*
X1270D01*
Y485D01*
D02*
G37*
G36*
X1280Y730D02*
X1270D01*
X1260Y727D01*
X1251Y722D01*
X1243Y714D01*
X1238Y705D01*
X1235Y695D01*
Y685D01*
X1238Y675D01*
X1243Y666D01*
X1251Y658D01*
X1260Y653D01*
X1270Y650D01*
X1280D01*
X1290Y653D01*
X1299Y658D01*
X1307Y666D01*
X1310Y672D01*
X1343D01*
X1452Y563D01*
Y480D01*
X1454Y473D01*
X1457Y467D01*
X1502Y423D01*
X1500Y415D01*
Y405D01*
X1503Y395D01*
X1508Y385D01*
X1515Y378D01*
X1525Y373D01*
X1535Y370D01*
X1545D01*
X1555Y373D01*
X1565Y378D01*
X1572Y385D01*
X1577Y395D01*
X1580Y405D01*
Y415D01*
X1577Y425D01*
X1572Y435D01*
X1565Y442D01*
X1555Y447D01*
X1545Y450D01*
X1535D01*
X1527Y448D01*
X1488Y487D01*
Y570D01*
X1486Y577D01*
X1483Y583D01*
X1483Y583D01*
X1363Y703D01*
X1357Y706D01*
X1350Y708D01*
X1310D01*
X1307Y714D01*
X1299Y722D01*
X1290Y727D01*
X1280Y730D01*
D02*
G37*
G36*
X331Y442D02*
X319D01*
X308Y440D01*
X297Y436D01*
X287Y429D01*
X279Y421D01*
X273Y411D01*
X268Y400D01*
X266Y389D01*
Y377D01*
X267Y369D01*
X264Y365D01*
X189D01*
X187Y370D01*
X180Y377D01*
X170Y382D01*
X160Y385D01*
X150D01*
X140Y382D01*
X130Y377D01*
X123Y370D01*
X118Y360D01*
X115Y350D01*
Y340D01*
X118Y330D01*
X123Y320D01*
X130Y313D01*
X140Y308D01*
X150Y305D01*
X160D01*
X170Y308D01*
X180Y313D01*
X187Y320D01*
X189Y325D01*
X272D01*
X280Y326D01*
X287Y331D01*
X291Y335D01*
X297Y331D01*
X308Y326D01*
X319Y324D01*
X331D01*
X342Y326D01*
X353Y331D01*
X363Y337D01*
X371Y345D01*
X377Y355D01*
X382Y366D01*
X384Y377D01*
Y389D01*
X382Y400D01*
X377Y411D01*
X371Y421D01*
X363Y429D01*
X353Y436D01*
X342Y440D01*
X331Y442D01*
D02*
G37*
G36*
X785Y296D02*
X715D01*
Y227D01*
X785D01*
Y296D01*
D02*
G37*
G36*
X1246Y268D02*
X1162D01*
Y220D01*
X1246D01*
Y268D01*
D02*
G37*
G36*
X1152D02*
X1068D01*
Y220D01*
X1152D01*
Y268D01*
D02*
G37*
G36*
X530Y231D02*
X530D01*
Y195D01*
X566D01*
Y195D01*
X563Y206D01*
X558Y215D01*
X550Y223D01*
X541Y228D01*
X530Y231D01*
D02*
G37*
G36*
X520D02*
X520D01*
X509Y228D01*
X500Y223D01*
X492Y215D01*
X487Y206D01*
X484Y195D01*
Y195D01*
X520D01*
Y231D01*
D02*
G37*
G36*
X1280Y630D02*
X1270D01*
X1260Y627D01*
X1251Y622D01*
X1243Y614D01*
X1238Y605D01*
X1235Y595D01*
Y585D01*
X1238Y575D01*
X1243Y566D01*
X1251Y558D01*
X1260Y553D01*
X1270Y550D01*
X1280D01*
X1290Y553D01*
X1299Y558D01*
X1307Y566D01*
X1307Y567D01*
X1312Y568D01*
X1377Y503D01*
Y450D01*
X1355D01*
Y370D01*
X1377D01*
Y268D01*
X1306D01*
Y162D01*
X1484D01*
Y268D01*
X1413D01*
Y370D01*
X1435D01*
Y450D01*
X1413D01*
Y510D01*
X1413Y510D01*
X1411Y517D01*
X1408Y523D01*
X1328Y603D01*
X1322Y606D01*
X1315Y608D01*
X1310D01*
X1307Y614D01*
X1299Y622D01*
X1290Y627D01*
X1280Y630D01*
D02*
G37*
G36*
X1246Y210D02*
X1162D01*
Y162D01*
X1246D01*
Y210D01*
D02*
G37*
G36*
X1152D02*
X1068D01*
Y162D01*
X1152D01*
Y210D01*
D02*
G37*
G36*
X566Y185D02*
X530D01*
Y149D01*
X530D01*
X541Y152D01*
X550Y157D01*
X558Y165D01*
X563Y174D01*
X566Y185D01*
Y185D01*
D02*
G37*
G36*
X520D02*
X484D01*
Y185D01*
X487Y174D01*
X492Y165D01*
X500Y157D01*
X509Y152D01*
X520Y149D01*
X520D01*
Y185D01*
D02*
G37*
%LPD*%
D10*
X1157Y215D02*
D03*
X1395D02*
D03*
D27*
X1705Y890D02*
X1765Y830D01*
X2565D02*
X2645Y750D01*
X1765Y830D02*
X2565D01*
X2264Y1126D02*
X2328Y1062D01*
X2645D01*
X2368Y550D02*
X2645D01*
X2264Y654D02*
X2368Y550D01*
D28*
X858Y261D02*
X950D01*
X525Y594D02*
X858Y261D01*
X325Y580D02*
X339Y594D01*
X525D01*
X155Y745D02*
X260Y850D01*
Y1025D01*
X155Y345D02*
X272D01*
X310Y383D01*
X950Y452D02*
X975Y477D01*
X950Y261D02*
Y452D01*
X975Y477D02*
Y490D01*
X1125Y436D02*
Y700D01*
X1215Y790D02*
X1275D01*
X1125Y700D02*
X1215Y790D01*
X1275D02*
X1285D01*
X1305Y810D01*
X1395D01*
X950Y261D02*
X1125Y436D01*
D29*
X310Y383D02*
X325D01*
D30*
X1445Y1304D02*
X1481Y1340D01*
X1445Y1180D02*
X1485Y1140D01*
X1445Y1180D02*
Y1304D01*
X1485Y1140D02*
X1498D01*
X1548Y1090D01*
X1748D02*
X1784Y1126D01*
X1548Y1090D02*
X1748D01*
X1485Y865D02*
Y1040D01*
X1470Y480D02*
Y570D01*
Y480D02*
X1540Y410D01*
X1350Y690D02*
X1470Y570D01*
X1485Y865D02*
X1540Y810D01*
X975Y959D02*
X1006Y990D01*
X975Y790D02*
Y959D01*
X1275Y690D02*
X1350D01*
X1395Y215D02*
Y410D01*
X1275Y590D02*
X1315D01*
X1395Y410D02*
Y510D01*
X1315Y590D02*
X1395Y510D01*
X975Y590D02*
Y690D01*
X850Y361D02*
Y516D01*
X859Y525D01*
X924Y590D02*
X975D01*
X859Y525D02*
X924Y590D01*
X1395Y215D02*
X1415Y235D01*
D31*
X1481Y1340D02*
D03*
X525Y190D02*
D03*
D32*
X1885Y1340D02*
D03*
D33*
X525Y594D02*
D03*
D34*
X2645Y1062D02*
D03*
X260Y1025D02*
D03*
X2645Y550D02*
D03*
D35*
Y1262D02*
D03*
X260Y1225D02*
D03*
X2645Y750D02*
D03*
D36*
X1485Y1025D02*
D03*
Y1125D02*
D03*
X975Y790D02*
D03*
Y690D02*
D03*
Y590D02*
D03*
Y490D02*
D03*
X1275Y790D02*
D03*
Y690D02*
D03*
Y590D02*
D03*
D37*
X1540Y810D02*
D03*
X155Y745D02*
D03*
X1395Y410D02*
D03*
D38*
X1540D02*
D03*
X155Y345D02*
D03*
X1395Y810D02*
D03*
D39*
X325Y580D02*
D03*
Y383D02*
D03*
D40*
X1084Y990D02*
D03*
X781Y525D02*
D03*
D41*
X1006Y990D02*
D03*
X859Y525D02*
D03*
D42*
X950Y261D02*
D03*
X850Y361D02*
D03*
D43*
X750Y261D02*
D03*
D44*
X1275Y490D02*
D03*
D45*
X1784Y1126D02*
D03*
X1705Y890D02*
D03*
X1784Y654D02*
D03*
X2264D02*
D03*
Y1126D02*
D03*
M02*
